<mxfile host="app.diagrams.net" modified="2024-01-19T14:36:04.010Z" agent="Mozilla/5.0 (Windows NT 10.0; Win64; x64) AppleWebKit/537.36 (KHTML, like Gecko) Chrome/120.0.0.0 Safari/537.36" version="22.1.21" etag="Vu3tre7RQFkuSm96p5AX" type="github">
  <diagram name="Page-1" id="NEDTkboUVGdU59jkcggU">
    <mxGraphModel>
      <root>
        <mxCell id="0" />
        <mxCell id="1" parent="0" />
      </root>
    </mxGraphModel>
  </diagram>
</mxfile>
